<?xml version="1.0" standalone="no"?>
<!DOCTYPE svg PUBLIC "-//W3C//DTD SVG 20010904//EN"
 "http://www.w3.org/TR/2001/REC-SVG-20010904/DTD/svg10.dtd">
<svg version="1.0" xmlns="http://www.w3.org/2000/svg"
 width="100.000000pt" height="100.000000pt" viewBox="0 0 100.000000 100.000000"
 preserveAspectRatio="xMidYMid meet">
<metadata>
Created by potrace 1.11, written by Peter Selinger 2001-2013
</metadata>
<g transform="translate(0.000000,100.000000) scale(0.100000,-0.100000)"
fill="#000000" stroke="none">
<path d="M749 815 c-26 -7 -51 -15 -57 -19 -22 -14 -243 -38 -367 -41 -72 -2
-133 -4 -136 -4 -14 -2 -19 -34 -7 -48 12 -15 75 -10 111 9 9 5 84 18 165 29
132 17 203 22 297 17 45 -2 75 11 75 32 0 30 -29 39 -81 25z"/>
<path d="M578 655 c-62 -61 -89 -68 -131 -35 -55 43 -64 15 -11 -35 34 -32 35
-36 29 -83 -4 -37 -2 -52 9 -61 24 -20 56 -4 56 29 0 43 53 151 94 189 20 19
36 39 36 43 0 20 -30 3 -82 -47z"/>
<path d="M471 676 c-6 -7 -9 -20 -5 -29 15 -39 72 -19 60 21 -8 25 -38 29 -55
8z"/>
<path d="M294 592 c-20 -3 -22 -9 -21 -83 l0 -80 26 3 c14 2 26 9 26 17 0 23
23 24 30 2 3 -12 12 -21 20 -21 19 0 28 35 16 59 -7 13 -8 22 -1 26 5 3 10 13
10 21 0 19 -46 18 -54 -1 -10 -26 -24 -16 -22 15 3 38 -3 46 -30 42z"/>
<path d="M613 591 c-5 -3 -9 -41 -10 -83 -1 -75 0 -78 22 -78 15 0 25 7 28 21
6 23 32 21 32 -2 0 -7 8 -15 17 -17 22 -4 35 42 19 62 -8 10 -9 16 -1 21 5 3
10 13 10 21 0 19 -46 18 -54 -1 -10 -28 -25 -15 -22 19 2 26 -2 36 -15 39 -9
3 -21 2 -26 -2z"/>
<path d="M130 530 c-22 -22 -26 -51 -10 -81 18 -32 40 -23 40 16 0 24 5 35 15
35 10 0 15 -11 15 -35 0 -30 3 -35 24 -35 28 0 36 21 24 65 -15 55 -70 73
-108 35z"/>
<path d="M788 533 c-27 -31 -30 -58 -9 -84 22 -27 33 -21 36 18 2 39 30 37 30
-2 0 -25 4 -30 25 -30 21 0 24 5 25 34 2 66 -68 108 -107 64z"/>
<path d="M550 450 c0 -6 -14 -17 -32 -24 -27 -12 -35 -12 -55 1 -21 14 -25 13
-51 -9 -16 -12 -39 -37 -51 -54 -24 -35 -151 -163 -175 -176 -24 -13 -19 -25
9 -24 14 1 80 38 148 83 67 44 135 87 152 94 47 22 100 119 65 119 -5 0 -10
-5 -10 -10z"/>
<path d="M561 373 c-18 -18 -49 -41 -69 -50 -19 -9 -30 -19 -24 -21 6 -2 24 4
40 12 49 25 164 53 207 49 37 -3 168 -39 190 -52 17 -9 35 -10 29 0 -3 5 -9 9
-14 9 -5 0 -42 15 -82 34 -148 68 -222 73 -277 19z"/>
<path d="M65 351 c13 -11 116 -49 165 -60 32 -7 42 -5 55 8 8 10 15 19 15 22
0 2 -31 5 -69 6 -38 1 -93 9 -122 17 -29 9 -49 12 -44 7z"/>
</g>
</svg>
